<?xml version="1.0" standalone="no"?>
<!DOCTYPE svg PUBLIC "-//W3C//DTD SVG 20010904//EN"
 "http://www.w3.org/TR/2001/REC-SVG-20010904/DTD/svg10.dtd">
<svg version="1.0" xmlns="http://www.w3.org/2000/svg"
 width="561.000000pt" height="561.000000pt" viewBox="0 0 561.000000 561.000000"
 preserveAspectRatio="xMidYMid meet">
<metadata>
Created by potrace 1.11, written by Peter Selinger 2001-2013
</metadata>
<g transform="translate(0.000000,561.000000) scale(0.100000,-0.100000)"
fill="#000000" stroke="none">
<path d="M4345 5599 c-41 -8 -71 -14 -113 -23 -124 -27 -302 -116 -417 -209
-86 -70 -235 -238 -235 -265 0 -6 -4 -12 -9 -14 -20 -7 -116 -232 -127 -298
-3 -14 -7 -31 -9 -38 -20 -55 -26 -287 -12 -392 17 -117 84 -298 146 -395 78
-121 186 -237 296 -317 62 -46 245 -144 245 -132 0 3 6 2 13 -3 6 -6 26 -14
42 -18 17 -5 35 -9 40 -11 86 -27 177 -37 305 -37 113 0 195 8 235 20 11 4 22
8 25 8 3 1 19 5 35 9 115 30 339 142 353 178 2 4 8 8 13 8 23 0 144 122 214
215 193 257 256 573 181 908 -14 61 -69 199 -102 252 -19 32 -34 61 -34 66 0
5 -4 9 -8 9 -5 0 -18 17 -30 39 -18 32 -158 180 -204 216 -56 44 -229 145
-258 151 -3 0 -18 6 -35 13 -96 41 -222 63 -365 66 -80 1 -163 -1 -185 -6z"/>
<path d="M1008 5595 c-2 -2 -32 -6 -68 -10 -35 -4 -71 -10 -80 -15 -8 -4 -18
-8 -23 -8 -17 -1 -119 -34 -162 -52 -25 -11 -49 -20 -53 -21 -16 -5 -111 -64
-167 -105 -81 -58 -147 -121 -205 -196 -28 -35 -54 -68 -58 -73 -20 -24 -92
-165 -111 -216 -50 -136 -65 -218 -65 -369 0 -172 7 -225 46 -344 53 -162 135
-299 247 -415 73 -75 163 -151 179 -151 6 0 12 -4 14 -8 3 -9 173 -104 183
-103 3 1 20 -5 38 -13 41 -17 152 -45 215 -54 61 -9 296 -8 347 1 145 27 367
115 425 169 10 10 22 18 26 18 7 0 94 72 139 115 159 154 288 406 312 610 9
76 10 276 2 310 -4 17 -10 46 -13 65 -8 55 -55 188 -94 265 -132 266 -385 476
-672 559 -96 28 -162 37 -282 41 -64 2 -118 2 -120 0z"/>
<path d="M915 2153 c-44 -7 -95 -18 -113 -24 -18 -6 -39 -12 -45 -14 -93 -23
-284 -127 -360 -195 -121 -108 -185 -183 -248 -292 -34 -58 -105 -218 -108
-243 -1 -3 -1 -6 -2 -7 -1 -5 -7 -33 -14 -68 -4 -19 -10 -46 -12 -60 -10 -47
-10 -281 -1 -328 5 -26 11 -58 14 -72 3 -14 13 -53 24 -87 89 -278 288 -513
547 -643 119 -59 326 -122 352 -106 5 4 12 2 16 -3 8 -14 277 -7 340 9 28 6
57 13 65 15 142 30 362 152 480 266 147 143 268 348 305 517 3 12 7 32 10 44
30 126 26 370 -7 478 -45 148 -115 309 -140 318 -4 2 -8 8 -8 14 0 14 -79 114
-137 172 -68 70 -194 161 -283 206 -73 36 -208 86 -222 82 -4 -1 -18 2 -32 7
-69 27 -302 35 -421 14z"/>
<path d="M4398 2164 c-2 -1 -23 -5 -48 -7 -175 -20 -409 -122 -540 -237 -139
-120 -221 -225 -292 -370 -32 -66 -75 -193 -84 -246 -3 -22 -9 -59 -14 -82 -4
-24 -6 -101 -5 -170 7 -285 120 -542 327 -742 72 -69 122 -110 136 -110 6 0
12 -4 12 -8 0 -11 173 -103 225 -120 22 -7 47 -16 55 -19 20 -8 17 -7 85 -22
33 -7 74 -16 92 -21 32 -8 286 -5 333 4 14 2 43 8 65 11 22 4 55 13 73 20 17
8 32 11 32 8 0 -3 6 -1 13 4 6 6 30 16 52 23 91 30 240 123 336 212 156 144
295 387 323 563 4 20 9 42 12 47 3 5 7 73 9 151 3 130 -2 181 -29 300 -20 85
-82 229 -130 300 -14 21 -26 42 -26 47 0 6 -4 10 -8 10 -4 0 -15 12 -24 28
-25 42 -139 154 -213 210 -110 84 -316 179 -427 197 -13 2 -41 7 -63 11 -39 6
-272 14 -277 8z"/>
</g>
</svg>
