<?xml version="1.0" encoding="UTF-8" standalone="no"?>
<svg
   xmlns:dc="http://purl.org/dc/elements/1.1/"
   xmlns:cc="http://creativecommons.org/ns#"
   xmlns:rdf="http://www.w3.org/1999/02/22-rdf-syntax-ns#"
   xmlns:svg="http://www.w3.org/2000/svg"
   xmlns="http://www.w3.org/2000/svg"
   id="svg8"
   version="1.1"
   viewBox="0 0 210 297"
   height="297mm"
   width="210mm"
   preserveAspectRatio="none">
  <defs
     id="defs2" />
  <metadata
     id="metadata5">
    <rdf:RDF>
      <cc:Work
         rdf:about="">
        <dc:format>image/svg+xml</dc:format>
        <dc:type
           rdf:resource="http://purl.org/dc/dcmitype/StillImage" />
        <dc:title></dc:title>
      </cc:Work>
    </rdf:RDF>
  </metadata>
  <g
     id="layer1">
    <ellipse
       ry="24.379465"
       rx="25.135416"
       cy="51.126484"
       cx="100.35268"
       id="path5073"
       style="opacity:1;fill:#000000;stroke:#000000;stroke-width:0.66499996;stroke-miterlimit:4;stroke-dasharray:none;stroke-opacity:1" />
    <path
       id="path5081"
       d="M 50.270833,86.089285 H 154.21428"
       style="fill:none;stroke:#000000;stroke-width:0.26458332px;stroke-linecap:butt;stroke-linejoin:miter;stroke-opacity:1" />
    <path
       id="path5085"
       d="m 50.270833,86.089285 v 65.011905 c 0,0 6.803572,17.00893 15.119048,-0.37798"
       style="fill:none;stroke:#000000;stroke-width:0.26458332px;stroke-linecap:butt;stroke-linejoin:miter;stroke-opacity:1" />
    <path
       id="path5085-8"
       d="m 154.21428,86.089285 v 65.011905 c 0,0 -6.80357,17.00892 -15.11905,-0.37799"
       style="fill:none;stroke:#000000;stroke-width:0.26458332px;stroke-linecap:butt;stroke-linejoin:miter;stroke-opacity:1" />
    <path
       id="path5111"
       d="m 65.389881,150.72321 0.377976,-43.08928"
       style="fill:none;stroke:#000000;stroke-width:0.26458332px;stroke-linecap:butt;stroke-linejoin:miter;stroke-opacity:1" />
    <path
       id="path5111-0"
       d="m 139.09523,150.7232 0.37797,-43.08928"
       style="fill:none;stroke:#000000;stroke-width:0.26458332px;stroke-linecap:butt;stroke-linejoin:miter;stroke-opacity:1" />
    <path
       id="path5146"
       d="m 65.775327,107.63608 9.311025,51.56471 v 65.80271 l 30.362038,73.88376 16.22293,0.36834 24.8895,-1.16103 12.94512,-1.10029"
       style="fill:none;stroke:#000000;stroke-width:0.27628464px;stroke-linecap:butt;stroke-linejoin:miter;stroke-opacity:1" />
    <path
       id="path5146-5"
       d="m 139.4732,107.63392 -8.69345,51.46915 v 65.68076 l 28.72619,72.21045"
       style="fill:none;stroke:#000000;stroke-width:0.26671737px;stroke-linecap:butt;stroke-linejoin:miter;stroke-opacity:1" />
    <path
       id="path5187"
       d="M 121.67132,299.2556 97.176894,223.68487"
       style="fill:none;stroke:#000000;stroke-width:0.33145425px;stroke-linecap:butt;stroke-linejoin:miter;stroke-opacity:1" />
    <path
       id="path5187-8"
       d="M 146.56082,298.09457 107.43917,222.2001"
       style="fill:none;stroke:#000000;stroke-width:0.41978496px;stroke-linecap:butt;stroke-linejoin:miter;stroke-opacity:1" />
    <path
       id="path5206"
       d="m 97.165926,223.68118 4.131694,-59.7288 6.12821,58.2409"
       style="fill:none;stroke:#000000;stroke-width:0.26458332px;stroke-linecap:butt;stroke-linejoin:miter;stroke-opacity:1" />
    <path
       transform="scale(0.26458333)"
       id="path5208"
       d="m 415.13455,1128.9183 -15.84713,-0.4536 -57.36716,-139.63031 -57.36714,-139.63036 0.0515,-124.25352 0.0515,-124.25353 -17.55079,-97.5 c -9.65294,-53.625 -17.94608,-97.5 -18.42922,-97.5 -0.48313,0 -1.34887,37.125 -1.92386,82.5 l -1.04545,82.5 -4.86795,8.05297 c -5.89007,9.74383 -14.42078,17.73898 -20.30654,19.03171 -7.8693,1.7284 -17.88516,-5.80595 -25.32476,-19.05033 l -3.51149,-6.25137 V 449.80276 327.12555 h 195 195 v 122.63566 122.63567 l -5.46605,8.45704 c -9.75793,15.09739 -18.53455,20.00324 -27.86501,15.57566 -6.19994,-2.94206 -9.46276,-6.45552 -15.93696,-17.16117 l -5.18353,-8.57143 0.31889,-81.78783 c 0.1754,-44.98331 -0.10872,-82.21545 -0.63137,-82.7381 -0.52265,-0.52264 -0.95026,-0.49834 -0.95026,0.054 0,0.55235 -7.39286,44.67186 -16.42857,98.04336 l -16.42857,97.03908 -0.0443,123.98046 -0.0443,123.98046 53.83207,135.37888 c 29.60763,74.45841 53.46101,135.74991 53.00751,136.20341 -0.8369,0.8369 -44.2764,4.9399 -44.96884,4.2475 -0.20733,-0.2073 -33.51592,-64.6038 -74.01909,-143.10338 L 407.2455,839.26841 395.8254,730.69698 c -6.28107,-59.71429 -11.72341,-109.46702 -12.09411,-110.56162 -0.3707,-1.0946 -0.9657,-1.69848 -1.32221,-1.34195 -0.35653,0.35651 -4.17362,51.57372 -8.48242,113.81601 l -7.83418,113.16779 45.6589,140.84948 c 25.11238,77.46721 45.65888,141.41341 45.65888,142.10271 0,1.1945 -6.18228,1.2221 -42.27571,0.1889 z"
       style="opacity:1;fill:#000000;stroke:#000000;stroke-width:3.59055114;stroke-miterlimit:4;stroke-dasharray:none;stroke-opacity:1" />
    <path
       transform="scale(0.26458333)"
       id="path849"
       d="m 416.73221,1130.1153 -18.53519,-0.8469 -57.53259,-139.99999 -57.53258,-140 -0.004,-125.09587 -0.004,-125.09587 -15.71523,-87.04699 c -8.64337,-47.87584 -16.25099,-88.30807 -16.90581,-89.84939 -1.25147,-2.94573 -3.08665,67.85408 -3.09085,119.24289 l -0.002,29.29763 -5.80305,8.88133 c -3.19168,4.88471 -8.45025,11.14721 -11.68571,13.91666 -12.03424,10.30084 -24.8373,4.90131 -36.52378,-15.40347 l -3.13031,-5.4388 V 449.18675 325.69698 h 196.42857 196.42857 v 123.34995 123.34995 l -5.50374,8.51535 c -7.71013,11.92907 -14.98563,17.6419 -22.46763,17.6419 -8.15916,0 -14.25609,-4.48856 -22.34743,-16.45215 l -6.74737,-9.97643 -0.15113,-76.42857 c -0.0831,-42.03571 -0.40433,-75.78571 -0.71379,-75 -0.30947,0.78572 -7.33014,41.52993 -15.60151,90.5427 l -15.03883,89.11413 v 124.805 124.80502 l 18.7228,46.79514 c 61.07267,152.64303 87.54764,221.14243 86.51323,223.83813 -0.93167,2.4278 -14.78277,4.208 -33.55004,4.3119 l -13.31403,0.074 -73.37847,-142.17072 -73.37849,-142.17071 -10.15819,-95.68643 c -5.587,-52.62753 -10.54638,-99.73686 -11.02084,-104.68737 -0.47446,-4.95053 -1.32127,-8.48624 -1.88181,-7.85714 -0.56053,0.62908 -1.74567,11.75094 -2.63363,24.71522 -0.88797,12.96429 -4.20789,60.53572 -7.37759,105.71429 l -5.76311,82.14286 37.27464,115 c 46.27499,142.7679 54.46454,168.8143 53.4104,169.8685 -1.15686,1.1568 -19.2197,1.2724 -41.28578,0.2641 z"
       style="opacity:1;fill:#008000;stroke:#000000;stroke-width:3.59055114;stroke-miterlimit:4;stroke-dasharray:none;stroke-opacity:1" />
    <path
       transform="scale(0.26458333)"
       id="path851"
       d="m 357.41026,283.47551 c -12.1205,-2.60318 -30.06555,-11.60311 -40.29207,-20.20758 -35.99769,-30.28802 -43.75775,-80.54571 -18.42787,-119.3472 12.75767,-19.54278 34.0268,-34.61426 57.29137,-40.59713 12.33909,-3.1732 34.92901,-3.12127 47.14286,0.10837 42.4569,11.22665 71.48453,47.80965 71.40746,89.99353 -0.0482,26.37583 -10.31806,48.9998 -30.73548,67.70865 -22.16446,20.3097 -55.59283,28.955 -86.38627,22.34136 z"
       style="opacity:1;fill:#008000;stroke:#000000;stroke-width:3.59055114;stroke-miterlimit:4;stroke-dasharray:none;stroke-opacity:1" />
  </g>
</svg>
